<?xml version="1.0" encoding="UTF-8" standalone="no"?><!DOCTYPE svg PUBLIC "-//W3C//DTD SVG 1.1//EN" "http://www.w3.org/Graphics/SVG/1.1/DTD/svg11.dtd"><!-- Generated by graphviz version 2.40.1 (20161225.0304)
 --><!-- Title: G Pages: 1 --><svg xmlns="http://www.w3.org/2000/svg" xmlns:xlink="http://www.w3.org/1999/xlink" width="398pt" height="44pt" viewBox="0.00 0.00 398.44 44.00">
<g id="graph0" class="graph" transform="scale(1 1) rotate(0) translate(4 40)">
<title>G</title>
<polygon fill="#ffffff" stroke="transparent" points="-4,4 -4,-40 394.4447,-40 394.4447,4 -4,4"/>
<!-- Entrees -->
<g id="node1" class="node">
<title>Entrees</title>
<ellipse fill="none" stroke="#000000" cx="39.9919" cy="-18" rx="39.9838" ry="18"/>
<text text-anchor="middle" x="39.9919" y="-13.8" font-family="Times,serif" font-size="14.00" fill="#000000">Entrees</text>
</g>
<!-- Fonction -->
<g id="node2" class="node">
<title>Fonction</title>
<ellipse fill="none" stroke="#000000" cx="197.3565" cy="-18" rx="45.2458" ry="18"/>
<text text-anchor="middle" x="197.3565" y="-13.8" font-family="Times,serif" font-size="14.00" fill="#000000">Fonction</text>
</g>
<!-- Entrees&#45;&gt;Fonction -->
<g id="edge1" class="edge">
<title>Entrees-&gt;Fonction</title>
<path fill="none" stroke="#000000" d="M80.1088,-18C98.8048,-18 121.3602,-18 141.6734,-18"/>
<polygon fill="#000000" stroke="#000000" points="141.7477,-21.5001 151.7477,-18 141.7477,-14.5001 141.7477,-21.5001"/>
</g>
<!-- Sorties -->
<g id="node3" class="node">
<title>Sorties</title>
<ellipse fill="none" stroke="#000000" cx="352.587" cy="-18" rx="37.7159" ry="18"/>
<text text-anchor="middle" x="352.587" y="-13.8" font-family="Times,serif" font-size="14.00" fill="#000000">Sorties</text>
</g>
<!-- Fonction&#45;&gt;Sorties -->
<g id="edge2" class="edge">
<title>Fonction-&gt;Sorties</title>
<path fill="none" stroke="#000000" d="M243.0912,-18C262.3463,-18 284.7698,-18 304.2921,-18"/>
<polygon fill="#000000" stroke="#000000" points="304.5016,-21.5001 314.5015,-18 304.5015,-14.5001 304.5016,-21.5001"/>
</g>
</g>
</svg>